<svg version="1.1" id="Layer_1" xmlns="http://www.w3.org/2000/svg" xmlns:xlink="http://www.w3.org/1999/xlink" x="0px" y="0px"
	 width="100%" viewBox="0 0 1024 672" enable-background="new 0 0 1024 672" xml:space="preserve">
<path fill="#000000" opacity="1.000000" stroke="none" 
	d="
M738.614197,440.431885 
	C727.662842,486.182709 706.291138,525.714111 672.469055,557.985901 
	C639.049255,589.873840 599.013367,608.782898 553.407227,615.521301 
	C504.401947,622.762146 456.613159,618.331299 411.390686,597.091431 
	C356.704620,571.406555 319.747284,528.968628 297.674469,473.176758 
	C284.241425,439.222961 278.101074,403.784760 281.028320,367.499542 
	C288.783539,271.369019 337.200806,204.230148 426.802734,167.452042 
	C435.112152,164.041351 435.181854,164.239746 434.674377,155.590027 
	C434.480011,152.277023 434.451782,148.972321 434.542572,145.641266 
	C434.662140,141.256668 436.098938,139.495590 440.774231,139.531281 
	C446.634735,139.576004 452.273743,140.467194 458.275635,142.398575 
	C456.626648,128.323700 453.332123,114.642586 461.457031,101.297691 
	C465.996368,104.467285 469.670319,107.891525 474.385345,109.658745 
	C480.077240,111.792114 481.122345,111.263275 482.681488,105.329720 
	C486.978607,88.976357 497.583221,77.375633 511.011627,67.912148 
	C514.236145,65.639709 515.420532,68.068443 516.709900,70.264748 
	C523.481201,81.798927 528.847351,93.961403 532.957458,106.684647 
	C533.458862,108.236664 533.474609,110.025925 535.265320,111.290161 
	C543.407959,109.839584 551.069214,107.058525 556.694580,100.293861 
	C562.272034,105.629074 564.992554,115.479141 566.959412,137.293427 
	C572.383972,136.148895 577.415771,134.155624 582.335876,131.802902 
	C586.660522,129.734863 588.020020,130.486572 588.298401,135.245651 
	C588.704102,142.180191 586.988647,148.851318 584.874207,155.301651 
	C583.285522,160.148453 584.231934,162.150131 589.219543,163.801285 
	C622.928345,174.960693 653.002075,192.351166 678.414734,217.348541 
	C712.392212,250.770859 732.806946,291.289093 741.433044,338.016663 
	C744.837952,356.460785 746.038269,375.029602 745.174438,393.690979 
	C744.452026,409.299255 742.564819,424.820282 738.614197,440.431885 
M384.388123,230.191818 
	C382.381409,231.669632 380.221710,232.979736 378.390442,234.649948 
	C340.300293,269.390442 319.777588,312.878204 315.511749,363.901337 
	C312.613678,398.564392 317.636749,432.311371 331.199280,464.553833 
	C350.439331,510.293457 381.457397,545.194702 426.662659,566.448242 
	C465.865692,584.879883 507.181152,588.561890 549.616638,581.770203 
	C592.755066,574.866089 629.754456,555.772034 658.778198,523.124817 
	C702.423645,474.030457 719.088928,415.975525 709.561401,351.377960 
	C698.621826,277.206970 656.715454,226.516525 587.373352,198.402252 
	C582.729004,196.519211 578.070679,194.363663 572.308105,193.875595 
	C575.412170,199.219635 574.198914,203.665771 571.265076,207.915192 
	C570.403076,209.163727 569.612915,210.289627 570.827576,211.935059 
	C573.248779,215.214905 572.467346,218.841537 571.652466,222.471024 
	C571.305359,224.016922 569.917053,225.755936 571.252869,227.214645 
	C575.819885,232.201767 572.699280,236.394135 570.164734,240.744797 
	C568.784912,243.113403 566.193970,244.789062 565.854431,247.683487 
	C567.805908,249.955551 569.801086,249.814240 571.748962,248.305588 
	C573.715454,246.782516 575.831299,245.309082 577.357727,243.395859 
	C579.449768,240.773666 581.354736,240.580276 584.161682,242.245590 
	C590.464233,245.984879 596.861572,249.576096 603.338257,253.004944 
	C606.460388,254.657852 607.097168,256.265045 605.459717,259.654541 
	C601.896057,267.031219 602.366028,268.182495 608.747620,273.583771 
	C614.482849,278.437958 620.303711,283.355743 624.623352,289.447998 
	C628.985840,295.600739 633.809875,297.037109 640.351868,293.844330 
	C643.066895,292.519318 644.593445,293.698456 645.946167,296.082275 
	C649.481140,302.311676 653.018311,308.552277 656.885864,314.575653 
	C659.122070,318.058197 658.963867,320.087738 655.292480,322.580444 
	C649.618652,326.432709 649.475830,328.188446 651.892090,334.830231 
	C654.739685,342.657593 657.003418,350.645752 658.407288,358.870270 
	C659.779846,366.911652 660.706177,368.068878 668.965637,369.553070 
	C672.379517,370.166565 673.402222,371.698120 673.344055,374.873596 
	C673.225037,381.371033 672.934631,387.899719 673.417175,394.363068 
	C673.808716,399.606812 672.146606,402.001831 666.814026,402.242981 
	C662.087097,402.456726 659.638367,404.791260 658.986389,410.035706 
	C657.963074,418.266998 656.265808,426.595856 652.846619,434.141937 
	C649.744812,440.987396 650.693420,445.823212 656.681763,449.968719 
	C659.020264,451.587616 659.234741,453.384491 657.721619,455.897858 
	C653.942444,462.175354 650.240417,468.514343 646.869080,475.016174 
	C645.037170,478.549194 643.334534,479.362823 639.525818,477.490173 
	C632.624939,474.097198 631.387268,474.637482 626.435364,480.721344 
	C621.474121,486.816528 615.907837,492.323395 609.957642,497.423615 
	C603.368042,503.071869 602.705322,504.355530 605.587036,512.380493 
	C606.824768,515.827332 605.962524,517.543274 602.986816,519.195068 
	C596.870789,522.590088 590.795898,526.083435 584.905273,529.850891 
	C581.652832,531.931030 579.720215,531.985046 577.262878,528.487427 
	C572.814697,522.156067 570.995239,521.904053 563.833313,524.449341 
	C556.453613,527.071960 548.980713,529.727295 541.195496,530.365845 
	C533.832581,530.969910 530.431702,534.689209 529.693848,541.479675 
	C529.336365,544.769836 527.592346,545.460693 524.663940,545.402588 
	C517.667053,545.263733 510.660400,545.191956 503.668152,545.417664 
	C499.692047,545.545959 497.623352,544.745972 497.430023,540.090576 
	C497.225189,535.158691 495.119110,531.608948 488.999420,530.910217 
	C480.931183,529.989014 472.821960,528.123047 465.418732,524.736816 
	C458.712494,521.669373 453.987518,523.049133 449.962891,528.714478 
	C448.156525,531.257202 446.219757,531.300171 443.587433,529.726685 
	C437.440704,526.052307 431.225525,522.465942 424.851837,519.208313 
	C421.335449,517.411072 420.401245,515.709717 422.264374,511.880951 
	C425.405212,505.426514 424.605774,503.125275 419.203033,498.534790 
	C413.224609,493.455078 407.199524,488.296082 402.622162,481.956604 
	C398.304962,475.977478 393.532715,474.120483 386.915131,477.354492 
	C384.268311,478.647980 382.639374,477.810547 381.228851,475.337891 
	C377.845215,469.406372 374.448944,463.467407 370.716217,457.754639 
	C368.123413,453.786438 367.592316,450.951233 372.377655,448.144958 
	C376.697784,445.611511 378.066589,441.859406 375.874664,436.646088 
	C372.717285,429.136597 370.225037,421.236176 369.527771,413.119232 
	C368.900116,405.812592 365.020996,402.948120 358.476807,402.184296 
	C355.990295,401.894073 354.668945,400.689209 354.637115,397.942932 
	C354.552338,390.620850 354.348755,383.297333 354.024078,375.981903 
	C353.833405,371.686340 355.235565,369.684784 359.955688,369.580048 
	C365.999756,369.445923 367.678253,367.341827 368.858124,361.102478 
	C370.342499,353.253082 371.702576,345.267700 375.030151,338.015350 
	C378.113312,331.295654 377.230377,326.292053 371.230164,322.124298 
	C368.404968,320.161926 368.730774,318.001953 370.358582,315.296753 
	C374.051453,309.159668 377.636292,302.945770 380.959869,296.603180 
	C382.715942,293.251862 384.399109,292.518005 387.981537,294.315918 
	C394.258240,297.466034 396.621796,296.679321 401.296906,291.217133 
	C406.287567,285.386200 411.255035,279.415466 417.539337,275.022369 
	C423.558380,270.814728 424.780823,265.954102 421.750061,259.663788 
	C420.227417,256.503601 421.522797,254.814163 424.265991,253.290756 
	C429.799713,250.217728 435.363708,247.153412 440.624359,243.648956 
	C444.842987,240.838654 447.942383,240.043060 451.121979,245.158218 
	C452.618500,247.565674 454.998749,250.637344 459.301697,248.677200 
	C457.513824,244.621353 454.102356,242.251846 451.952332,238.929886 
	C447.637726,232.263443 447.703857,230.760483 453.347473,225.457748 
	C451.991425,220.967667 451.473999,216.397171 454.418976,212.149017 
	C455.215179,211.000519 454.908691,209.972977 454.211426,208.923370 
	C450.991425,204.076553 450.769989,199.093735 454.443481,193.336288 
	C451.597443,194.107071 449.683472,194.537262 447.826538,195.142471 
	C434.475281,199.493912 421.699158,205.175110 409.638550,212.349670 
	C400.931793,217.529144 391.990509,222.450485 385.010162,229.999908 
	C385.010162,229.999908 385.042389,229.975998 384.388123,230.191818 
M456.114075,457.363922 
	C477.504517,473.865234 501.619537,480.562927 528.319641,476.417999 
	C578.718445,468.594086 613.775757,421.597046 606.900391,370.887421 
	C599.771851,318.310425 548.052429,281.122040 496.147858,291.675537 
	C447.257996,301.616089 414.509644,347.826324 421.187988,395.821991 
	C424.663116,420.796783 436.202850,440.996674 456.114075,457.363922 
M569.976440,152.703583 
	C564.253113,156.392197 558.640747,160.294235 551.320557,163.377380 
	C551.926392,161.253662 552.097839,160.466858 552.372437,159.717850 
	C556.815674,147.597687 556.392273,135.219345 554.161011,122.799812 
	C553.271606,117.849236 550.562683,116.844604 546.478760,119.744720 
	C543.294373,122.006058 541.205017,125.196808 539.340332,128.608963 
	C537.118103,132.675629 534.219971,136.089188 528.977905,137.234650 
	C528.874878,135.918793 528.648010,135.230484 528.800476,134.640182 
	C531.583984,123.864929 528.037476,115.090904 520.530090,107.394226 
	C516.124939,102.878067 513.811890,97.176384 512.079529,91.176369 
	C511.502136,89.176498 512.478210,86.792664 510.401489,84.838898 
	C501.452881,88.210449 496.383575,95.100639 493.380859,103.746254 
	C489.585205,114.674934 489.632629,125.941475 490.910400,137.276749 
	C491.124359,139.174911 492.213654,141.506546 490.002930,142.710236 
	C488.079071,143.757736 486.128479,142.480881 484.455414,141.380188 
	C480.773926,138.958191 478.162048,135.503250 475.503937,132.067368 
	C474.367554,130.598465 473.883179,128.344879 470.950287,127.926529 
	C464.928406,139.438110 469.865509,151.045746 471.375305,163.039642 
	C464.608643,160.498306 458.586609,158.268524 451.837189,157.650116 
	C449.771484,167.670044 453.605835,175.465622 459.569275,182.590042 
	C460.642273,183.871918 462.259674,183.782837 463.754913,183.783386 
	C493.568878,183.794373 523.382812,183.797211 553.196777,183.780655 
	C554.835327,183.779739 556.698914,183.979202 557.507996,182.035843 
	C560.127563,175.743744 565.081299,171.150330 569.054321,165.833481 
	C572.404114,161.350616 574.792480,156.355652 574.436462,149.817719 
	C572.706482,150.911575 571.611816,151.603668 569.976440,152.703583 
M401.962891,441.592041 
	C420.754730,477.562103 449.955841,499.762848 490.570618,508.925568 
	C489.980530,502.881531 488.875580,497.799774 489.147430,492.792755 
	C489.499023,486.316132 486.065247,484.604889 480.728577,482.842194 
	C432.082611,466.774292 401.931641,416.587677 410.963043,366.387054 
	C416.849792,333.665863 434.498444,308.896545 463.365356,292.221100 
	C464.742218,291.425751 467.087952,291.100098 466.958069,289.169006 
	C466.564941,283.325165 466.348450,277.391418 464.131866,271.767242 
	C404.367859,296.316589 368.364014,371.551971 401.962891,441.592041 
M630.598572,431.104980 
	C637.639587,412.768677 640.530212,393.689362 638.434387,374.266693 
	C634.123474,334.315735 614.842407,303.100128 581.356750,280.836823 
	C575.762634,277.117493 569.915100,273.608429 562.929932,271.737366 
	C562.368652,275.207581 561.952209,278.131897 561.414429,281.033722 
	C560.298340,287.056641 561.847839,290.767822 567.754089,294.432556 
	C604.749695,317.387665 621.960632,351.467163 617.794739,394.408020 
	C613.803589,435.547943 591.210999,465.038483 552.706726,480.463074 
	C542.152283,484.691132 536.741211,489.403168 537.488342,500.570221 
	C537.554504,501.559235 537.445740,502.567352 537.343445,503.558868 
	C537.007324,506.818756 538.341187,508.301788 541.670105,507.674469 
	C542.973145,507.428925 544.283752,507.188934 545.557739,506.829285 
	C585.864136,495.451294 613.873901,470.170959 630.598572,431.104980 
M559.086487,207.012985 
	C561.520020,204.228882 564.432007,201.033936 563.007507,197.387878 
	C561.386414,193.238266 556.804993,194.377594 553.235962,194.360443 
	C541.402954,194.303543 529.569458,194.349609 517.736145,194.353836 
	C501.402863,194.359665 485.069580,194.365509 468.736298,194.366241 
	C465.340881,194.366394 462.113800,195.238770 461.051208,198.700287 
	C460.049652,201.962997 462.654388,204.207825 464.727905,206.379929 
	C466.177216,207.898178 468.078552,207.641571 469.892883,207.644073 
	C479.559540,207.657425 489.226257,207.677429 498.892792,207.643524 
	C518.719116,207.573990 538.545227,207.471649 559.086487,207.012985 
M546.448181,227.686890 
	C548.612000,227.690536 550.776184,227.720413 552.939575,227.692596 
	C558.049927,227.626877 561.352112,225.399704 561.514587,221.943588 
	C561.679871,218.426910 558.574341,216.295807 553.152649,216.208099 
	C552.653442,216.200012 552.153992,216.205917 551.654663,216.205902 
	C525.355957,216.205292 499.057281,216.202194 472.758575,216.210724 
	C471.262451,216.211197 469.731598,216.122757 468.277740,216.397568 
	C465.613037,216.901230 463.687958,218.390060 463.392242,221.289200 
	C463.069366,224.454117 464.853058,226.404495 467.624023,227.248734 
	C469.322510,227.766220 471.239838,227.669022 473.059052,227.670761 
	C497.193939,227.693924 521.328796,227.685684 546.448181,227.686890 
M552.804871,254.039047 
	C551.587524,247.648697 549.971985,246.726288 542.055725,247.182846 
	C539.323059,247.340469 538.133789,248.351089 538.160095,251.074066 
	C538.206726,255.895111 538.181396,260.718231 538.087585,265.538574 
	C538.052429,267.345306 538.054932,269.682831 535.698792,269.837219 
	C532.991211,270.014648 532.758667,267.648560 532.732178,265.592010 
	C532.670288,260.770660 532.550720,255.943970 532.708069,251.127731 
	C532.842896,247.000015 530.127075,246.965515 527.393433,247.256897 
	C524.655884,247.548737 520.424011,245.529099 520.372803,250.915710 
	C520.293823,259.228760 520.355225,267.543030 520.329590,275.856720 
	C520.323181,277.935883 520.904846,279.423645 523.296875,279.620300 
	C531.276794,280.276428 539.025635,282.060822 546.666565,284.402527 
	C548.624390,285.002533 550.345093,284.843597 550.597229,282.168701 
	C551.452454,273.095245 553.397339,264.114105 552.804871,254.039047 
M506.804260,270.397705 
	C506.762909,264.236664 506.471436,258.063934 506.758911,251.918274 
	C506.991241,246.951080 503.974579,247.156021 500.640717,247.190170 
	C497.239960,247.225006 493.762817,246.708954 494.125336,252.052521 
	C494.428955,256.527527 494.223755,261.041260 494.143188,265.536041 
	C494.110382,267.365265 493.991791,269.705261 491.682953,269.804321 
	C488.950256,269.921539 488.891663,267.425262 488.855469,265.425659 
	C488.771118,260.764252 488.710968,256.098907 488.812286,251.438889 
	C488.875336,248.539841 487.827454,247.277390 484.780151,247.147446 
	C477.760345,246.848038 474.757446,249.731003 474.372803,257.911743 
	C474.003632,265.763336 475.953247,273.424866 476.536041,281.205505 
	C476.776306,284.413452 478.818085,285.307983 481.877472,284.283905 
	C487.562347,282.380920 493.426514,281.242340 499.333923,280.231293 
	C506.758728,278.960602 506.738068,278.839905 506.804260,270.397705 
M524.574890,510.130035 
	C527.047974,502.950897 527.165894,495.540314 527.472046,488.082703 
	C518.302429,488.004822 518.302429,488.004822 518.309875,496.370941 
	C518.312683,499.515900 518.518066,502.676910 518.269897,505.801910 
	C517.920288,510.205078 519.809204,511.537079 524.574890,510.130035 
M540.765930,608.166931 
	C540.725769,603.792419 538.339905,599.586792 540.600037,594.967102 
	C541.606384,592.910095 539.481812,591.129761 537.282776,590.192383 
	C534.768982,589.120789 532.821289,589.872620 531.024048,591.675537 
	C529.154175,593.551392 528.581299,595.859009 529.990356,597.969910 
	C531.371582,600.039124 531.531372,601.399780 530.176086,603.673645 
	C528.294067,606.831055 528.683289,610.428711 532.328186,612.147461 
	C535.761902,613.766479 539.206238,613.445618 540.765930,608.166931 
M501.530762,591.216309 
	C498.541962,594.249634 498.877563,597.911560 499.959503,601.463074 
	C501.235016,605.649963 505.078094,602.874268 507.520660,603.618835 
	C508.499176,606.050476 508.364868,608.186218 506.753510,609.895630 
	C504.450684,612.338562 502.928284,608.405457 500.486877,608.747864 
	C500.671844,612.326050 502.908081,612.888000 505.535553,612.871765 
	C508.429901,612.853882 510.423920,611.468750 510.593323,608.499207 
	C510.829376,604.360168 510.863037,600.197876 510.737366,596.052917 
	C510.568207,590.473083 507.561371,588.702148 501.530762,591.216309 
M506.832184,509.972015 
	C508.591919,504.456451 507.188904,498.786438 507.654114,493.209259 
	C508.039246,488.592377 505.735443,487.441498 501.380798,488.233795 
	C500.909149,495.102020 502.311737,501.590759 503.211090,508.118500 
	C503.452789,509.872833 504.243500,510.915588 506.832184,509.972015 
M521.115540,592.350342 
	C524.935852,595.812256 521.993835,598.443176 519.703735,601.214294 
	C522.869690,603.422241 524.389954,606.573669 521.947083,609.368103 
	C518.202942,613.651001 518.322144,606.471069 515.992798,606.530457 
	C515.027954,607.079224 514.790222,607.717896 515.016296,608.375183 
	C516.129333,611.610657 518.298645,613.511230 521.815186,612.599731 
	C525.774353,611.573486 526.341675,608.150330 525.497681,605.014160 
	C524.690002,602.013245 523.457825,599.378662 525.527954,596.419861 
	C525.985962,595.765259 525.822510,594.373901 525.474426,593.511841 
	C524.258850,590.501282 521.840637,589.075195 518.743042,590.031921 
	C516.423645,590.748230 514.775940,592.425537 515.753967,595.589233 
	C518.096313,594.593933 517.964417,591.700378 521.115540,592.350342 
M490.439606,599.330200 
	C490.413574,603.766479 490.214081,608.228088 491.799957,613.360474 
	C494.029541,609.200317 494.323639,595.852478 492.770081,590.666687 
	C490.926422,590.945374 489.638824,592.116333 488.088959,593.287292 
	C490.001892,594.731445 490.912140,596.376160 490.439606,599.330200 
z"/>
<path fill="#000000" opacity="1.000000" stroke="none" 
	d="
M675.356995,587.022339 
	C683.840027,589.877441 688.017456,595.303101 687.832886,602.817749 
	C687.656799,609.985657 683.050476,615.618042 675.841003,617.480835 
	C667.386719,619.665283 658.410034,614.156128 656.825134,605.810425 
	C655.010437,596.254578 661.177551,587.618103 670.476318,586.784119 
	C671.953552,586.651672 673.461243,586.858337 675.356995,587.022339 
M673.160828,613.632324 
	C674.564087,613.157104 676.051758,612.846252 677.355652,612.177368 
	C682.253357,609.664734 684.680298,604.087341 683.105347,599.250732 
	C681.307251,593.729126 676.554382,590.603394 670.913757,591.232849 
	C665.166687,591.874207 661.023132,596.546570 661.025635,602.382935 
	C661.028320,608.753784 665.074951,612.774109 673.160828,613.632324 
z"/>
<path fill="#000000" opacity="1.000000" stroke="none" 
	d="
M646.651367,497.650940 
	C666.390381,476.134216 679.850708,451.538361 687.691833,423.809357 
	C689.299011,418.125854 690.115051,417.803253 695.753174,419.712097 
	C695.500610,451.284332 644.048279,523.897705 615.351624,532.798523 
	C614.263611,528.938354 613.835876,525.604370 617.874512,522.856262 
	C628.384399,515.704712 637.759094,507.208801 646.651367,497.650940 
z"/>
<path fill="#000000" opacity="1.000000" stroke="none" 
	d="
M572.990540,546.982666 
	C575.296204,553.638428 580.344421,558.810364 583.040833,565.518005 
	C581.211975,567.452515 579.398132,568.734985 576.748779,566.594299 
	C574.094360,564.449524 572.130981,565.070496 571.293762,568.401794 
	C569.969116,573.672974 565.161560,572.061707 561.848999,572.992249 
	C558.566589,573.914368 558.528198,570.498047 557.862671,568.442078 
	C557.317322,566.757385 556.882996,565.274414 554.632874,565.517883 
	C553.423035,567.594482 554.406006,569.494873 554.787598,571.358032 
	C555.158752,573.170105 555.309448,574.722717 553.005249,575.207703 
	C550.753296,575.681702 549.297729,575.217041 548.584473,572.603821 
	C547.561768,568.857300 547.330750,564.843567 545.289062,561.002380 
	C543.499390,563.089905 545.181091,564.323853 545.729065,565.664917 
	C548.419495,572.249084 546.084656,576.304993 539.001770,577.286316 
	C530.560181,578.455933 530.522156,578.401550 529.728394,569.950745 
	C529.324951,565.654602 528.986206,561.338623 528.269592,557.090515 
	C527.788879,554.241089 528.753906,552.855896 531.469177,552.783203 
	C535.620544,552.672119 540.095093,550.395752 543.701416,554.428040 
	C545.992920,548.662292 551.305420,550.061951 555.637024,549.554993 
	C559.104919,549.149170 561.415405,551.945984 561.070374,554.756897 
	C560.395142,560.257629 563.918152,564.342529 565.246399,569.183960 
	C564.432800,563.463440 563.532837,557.753235 562.852051,552.016968 
	C562.611084,549.986633 561.967285,547.614929 564.712952,546.417908 
	C567.332520,545.275818 569.905334,543.815125 572.689880,546.825317 
	C573.000000,546.998962 572.990540,546.982666 572.990540,546.982666 
M537.543518,572.358582 
	C539.332153,572.427673 540.440125,571.504150 540.261719,569.785645 
	C540.091858,568.148682 539.352295,566.622925 537.059570,567.107666 
	C535.933228,568.744751 536.063843,570.380615 537.543518,572.358582 
M551.757263,555.458252 
	C551.096924,557.408081 551.866516,558.810608 553.510010,560.361877 
	C555.788757,557.547302 556.064270,555.741272 551.757263,555.458252 
z"/>
<path fill="#000000" opacity="1.000000" stroke="none" 
	d="
M373.550049,500.432007 
	C354.170563,478.241791 340.640961,453.275024 333.022766,425.174805 
	C332.500580,423.248749 329.860229,420.181488 333.861481,418.921082 
	C337.655243,417.726044 339.381500,419.761963 340.421021,423.525116 
	C350.373901,459.555878 369.795349,489.617340 398.267609,513.760193 
	C401.971283,516.900757 401.386810,520.272949 400.971802,525.057129 
	C390.202545,518.150452 381.993774,509.424316 373.550049,500.432007 
z"/>
<path fill="#000000" opacity="1.000000" stroke="none" 
	d="
M440.397400,561.590698 
	C440.968262,556.611938 443.680420,554.934021 445.818146,557.841309 
	C446.343536,558.555847 446.250977,559.715698 446.475800,560.662903 
	C446.687469,561.554993 447.229919,562.111450 448.339355,562.193909 
	C450.522614,560.953491 449.603149,559.234375 448.851959,557.579163 
	C448.509491,556.824646 448.034485,556.130676 447.626007,555.405640 
	C444.581146,550.000488 444.653137,545.381042 447.813721,543.238586 
	C450.959137,541.106323 456.695068,542.758972 460.173187,546.795044 
	C460.488770,547.161255 460.827667,547.507385 461.124847,547.829346 
	C469.016052,546.099426 473.222687,547.850342 475.578918,554.292480 
	C476.032013,551.373901 477.051819,549.843750 479.982483,550.608948 
	C482.939087,551.380981 482.340363,553.439697 482.012238,555.342407 
	C481.362823,559.108154 480.520721,562.840393 479.780701,566.590942 
	C479.440613,568.314270 478.582092,570.198059 481.030945,571.309998 
	C483.339996,570.407776 483.255035,568.224487 483.645721,566.371643 
	C484.433838,562.633972 485.071167,558.864502 485.856903,555.126282 
	C486.292053,553.055969 487.377319,551.924683 489.775482,552.553284 
	C491.890106,553.107544 492.323486,554.360901 491.944305,556.280273 
	C491.010376,561.007385 490.258301,565.775024 489.176453,570.467163 
	C487.987701,575.622803 484.497589,577.423767 478.836426,576.118469 
	C474.367523,575.088196 472.280304,571.893433 473.082825,567.198608 
	C473.526093,564.605530 474.074219,562.030396 474.563904,559.504822 
	C469.916779,557.542725 469.916779,557.542725 468.078552,552.684265 
	C464.312439,554.862488 461.769531,563.756470 463.968414,567.367310 
	C464.388611,567.174316 464.986481,567.093506 465.224792,566.757629 
	C466.430298,565.058411 467.110352,562.697876 470.079498,563.732849 
	C471.565735,564.250916 472.408661,565.085632 472.054504,566.664185 
	C471.441467,569.396301 470.195557,571.656860 467.188477,572.395264 
	C462.435303,573.562561 458.036438,571.055237 455.323700,565.621704 
	C449.252747,568.981384 444.450714,567.791992 440.397400,561.590698 
M454.254608,555.393860 
	C455.362823,557.049316 456.100006,558.874878 456.556671,561.285583 
	C458.573212,554.519958 458.573212,554.519958 452.835999,547.624268 
	C449.878448,550.566101 452.946228,552.545715 454.254608,555.393860 
z"/>
<path fill="#000000" opacity="1.000000" stroke="none" 
	d="
M573.006836,547.005005 
	C572.106812,544.817505 573.057129,543.599426 575.086914,542.788452 
	C576.949097,542.044495 578.219360,542.593079 579.368042,544.136353 
	C581.397766,546.863525 583.537170,549.509033 586.446594,551.710754 
	C585.733276,548.529602 585.152161,545.310913 584.261230,542.180298 
	C583.644775,540.014221 584.121765,538.098999 586.196106,537.881470 
	C589.647095,537.519653 591.648560,535.057190 594.281372,533.496338 
	C599.315491,530.511841 602.526917,531.296570 605.593140,536.173401 
	C607.361023,538.985291 609.086182,541.829224 610.702393,544.730103 
	C613.178894,549.175232 612.248657,552.476440 607.877502,555.256287 
	C603.063843,558.317566 599.680969,557.823547 596.650818,553.656860 
	C595.711670,552.365417 595.384155,550.531616 593.218689,549.911133 
	C591.765320,552.426880 593.513062,554.663879 593.976440,556.875427 
	C594.603577,559.868713 594.210754,561.845703 591.120422,563.300110 
	C588.158813,564.693909 586.342224,564.344971 584.416016,561.639282 
	C580.952332,556.773804 577.154968,552.145874 573.243774,547.200684 
	C572.990540,546.982666 573.000000,546.998962 573.006836,547.005005 
M596.449829,539.226074 
	C598.061279,543.950378 600.263123,548.259033 604.557434,551.881897 
	C605.406738,547.267883 600.876404,539.248352 597.415771,538.119385 
	C597.236267,538.060791 596.904358,538.469055 596.449829,539.226074 
z"/>
<path fill="#000000" opacity="1.000000" stroke="none" 
	d="
M416.335449,226.707703 
	C418.626495,230.001602 420.733978,232.984756 422.790863,236.002411 
	C423.736450,237.389679 424.779694,238.848068 422.933655,240.345200 
	C421.331604,241.644424 419.757172,242.739548 417.613281,241.184525 
	C415.215607,239.445419 412.690582,237.881897 409.119141,235.510315 
	C410.859222,238.327621 411.918060,240.094528 413.029846,241.827515 
	C414.185394,243.628708 415.947662,245.370148 413.164001,247.270096 
	C410.311646,249.216934 409.312225,246.675598 408.128204,245.070602 
	C404.976318,240.798264 401.932281,236.444443 398.927765,232.066467 
	C397.952118,230.644852 396.189331,229.084030 397.998718,227.269882 
	C399.488220,225.776367 401.204346,224.253235 403.692596,224.990326 
	C404.767883,225.308853 405.685883,226.231674 406.956604,225.846298 
	C407.774261,224.807037 406.786499,223.987381 406.596375,223.094894 
	C406.191925,221.196396 407.358917,220.400436 408.746979,219.651581 
	C410.265808,218.832153 411.285187,219.537827 412.129211,220.706833 
	C413.488708,222.589828 414.799713,224.507828 416.335449,226.707703 
z"/>
<path fill="#000000" opacity="1.000000" stroke="none" 
	d="
M323.629639,347.529236 
	C330.552887,348.029022 337.132996,348.661224 343.702332,349.390503 
	C345.406891,349.579742 347.009583,350.206177 347.179565,352.297241 
	C347.356232,354.469940 346.747650,356.353271 344.440735,357.005035 
	C341.919434,357.717407 339.329773,358.187897 336.033386,358.929504 
	C338.158661,361.112671 340.434662,360.508789 342.302032,361.007690 
	C344.215668,361.518951 345.725922,362.158234 345.356720,364.655609 
	C344.973267,367.249481 343.336304,367.301086 341.349640,366.988007 
	C335.793060,366.112366 330.240845,365.202606 324.670258,364.425690 
	C322.579468,364.134064 320.678284,363.995056 320.717407,361.140564 
	C320.752441,358.584747 321.362183,356.546448 324.150482,355.823608 
	C325.896301,355.371002 327.632996,354.883209 329.658569,354.333984 
	C327.347107,352.026123 319.658630,355.086060 323.629639,347.529236 
z"/>
<path fill="#000000" opacity="1.000000" stroke="none" 
	d="
M630.511536,231.396423 
	C629.854431,233.635971 629.300415,235.520203 628.451477,238.407455 
	C630.486206,236.020905 631.822571,234.405899 633.211853,232.837784 
	C634.525513,231.355026 635.882507,231.897919 637.174011,232.892609 
	C638.454285,233.878662 638.607666,235.036392 637.616150,236.345657 
	C633.697449,241.520248 629.813538,246.721542 625.856384,251.866455 
	C624.891296,253.121185 623.645142,253.927307 621.975525,252.866241 
	C620.164001,251.715042 618.849304,250.396622 619.641357,247.971588 
	C620.654602,244.869354 621.575745,241.737045 621.983826,238.325485 
	C620.355652,240.374039 618.708130,242.407547 617.105652,244.476013 
	C615.862244,246.080948 614.561951,247.141754 612.518188,245.627060 
	C610.522644,244.147995 610.918457,242.662231 612.254395,240.979218 
	C615.773376,236.546127 619.193787,232.034256 622.745850,227.628265 
	C623.826721,226.287674 624.854614,224.151779 627.117004,225.365860 
	C629.262390,226.517075 631.786987,227.720764 630.511536,231.396423 
z"/>
<path fill="#000000" opacity="1.000000" stroke="none" 
	d="
M384.996277,230.014206 
	C388.468964,228.672379 388.277618,231.258621 388.410828,233.346848 
	C394.844940,233.623291 404.674927,241.327789 406.253296,247.384933 
	C407.355896,251.616180 405.033325,254.362213 401.768555,256.478668 
	C398.682404,258.479309 395.496521,258.947174 392.782806,255.916840 
	C389.798370,252.584213 386.444214,249.387772 384.301483,245.546158 
	C381.680542,240.847229 383.760162,235.665405 384.857788,230.349274 
	C385.042389,229.975998 385.010162,229.999908 384.996277,230.014206 
M399.573029,251.300064 
	C399.706238,248.564316 393.630371,239.837082 391.364380,239.724365 
	C389.461761,239.629730 388.860168,241.110825 389.888153,242.307907 
	C392.704254,245.587158 394.427673,250.002991 399.573029,251.300064 
z"/>
<path fill="#000000" opacity="1.000000" stroke="none" 
	d="
M681.277588,288.459961 
	C680.590942,289.596161 680.128845,290.857788 679.367188,291.076599 
	C673.951782,292.632355 670.266479,296.700653 666.016479,299.946777 
	C664.499390,301.105499 663.104187,301.456879 661.788635,299.611420 
	C660.541321,297.861572 660.458191,296.391418 662.190979,294.825562 
	C663.861267,293.316132 666.975098,292.793243 666.351868,289.224213 
	C663.768982,288.579254 662.344543,290.586090 660.607910,291.561829 
	C658.645874,292.664185 657.244080,292.471680 655.936157,290.604980 
	C654.547180,288.622559 655.120178,287.306946 657.008545,286.116699 
	C662.207947,282.839691 667.369263,279.502411 672.543884,276.186157 
	C674.182007,275.136322 675.655640,275.121552 676.844238,276.864319 
	C679.172852,280.278839 681.992798,283.497894 681.277588,288.459961 
M674.750061,286.255432 
	C675.411072,285.453583 675.971863,284.460968 674.921143,283.753021 
	C673.577393,282.847717 672.486023,284.009735 671.467712,284.721985 
	C670.734131,285.235107 670.522888,286.062225 671.202271,286.806274 
	C672.251709,287.955536 673.261169,287.160858 674.750061,286.255432 
z"/>
<path fill="#000000" opacity="1.000000" stroke="none" 
	d="
M690.600220,358.495514 
	C695.355347,358.039429 699.666077,357.695251 703.963928,357.231567 
	C705.996704,357.012238 707.174866,357.657898 707.385132,359.784363 
	C707.613708,362.096466 708.078613,364.402924 708.096069,366.714417 
	C708.129333,371.118103 705.973816,374.013306 701.382019,373.278107 
	C696.885864,372.558258 692.980896,374.356049 688.800232,374.948181 
	C686.852539,375.223999 684.294250,376.231995 683.738586,372.787109 
	C683.215332,369.543396 684.934326,368.673859 687.743225,368.660461 
	C689.760864,368.650818 691.821594,368.516724 692.374329,365.841217 
	C690.856262,364.071320 688.941101,365.212799 687.249573,365.173035 
	C684.971252,365.119415 682.806519,365.283112 682.758972,362.031342 
	C682.712097,358.818024 684.901489,358.763397 687.154846,358.684357 
	C688.153687,358.649323 689.151978,358.600800 690.600220,358.495514 
M700.429016,364.254639 
	C699.239136,364.406952 697.430298,364.016693 697.962524,366.105957 
	C698.344910,367.607025 699.839050,367.945984 701.115845,367.284698 
	C702.765564,366.430237 703.311829,365.273468 700.429016,364.254639 
z"/>
<path fill="#000000" opacity="1.000000" stroke="none" 
	d="
M506.504303,572.469360 
	C506.794739,574.903076 508.424530,577.466797 505.439880,578.467407 
	C503.308594,579.181885 501.536469,578.324646 500.387360,575.760437 
	C499.266785,573.260071 496.713470,573.347595 495.195679,575.527405 
	C493.396118,578.111694 491.514282,577.766357 488.807953,576.493164 
	C490.028107,568.978943 493.004761,561.947266 495.324921,554.745728 
	C496.035065,552.541504 498.157928,552.721375 500.011322,553.069336 
	C501.923706,553.428345 504.039551,553.457214 504.356689,556.241943 
	C504.957581,561.518738 505.734467,566.775452 506.504303,572.469360 
z"/>
<path fill="#000000" opacity="1.000000" stroke="none" 
	d="
M680.722107,339.403198 
	C687.291992,339.148438 693.450989,339.112183 699.599243,338.837128 
	C702.993225,338.685303 704.194885,340.464935 704.970520,343.404022 
	C705.820007,346.622833 704.235779,347.953156 701.674927,349.083771 
	C696.653076,351.300842 691.707214,353.689301 686.697388,355.934418 
	C685.284729,356.567505 683.621338,358.026520 682.335449,355.917908 
	C681.445862,354.459229 681.195923,352.627289 682.617676,351.297028 
	C685.912109,348.214813 685.003662,346.492920 681.183655,344.805328 
	C678.972290,343.828339 677.466980,341.798615 680.722107,339.403198 
z"/>
<path fill="#000000" opacity="1.000000" stroke="none" 
	d="
M370.200378,291.751312 
	C367.675415,292.604279 365.563385,292.557892 363.651489,291.207916 
	C359.445251,288.237915 355.259033,285.239258 351.082733,282.227264 
	C349.463745,281.059631 348.387238,279.780640 349.913666,277.686554 
	C351.371277,275.686890 352.815948,275.297821 354.895538,276.862579 
	C358.611511,279.658691 362.435638,282.311890 366.234161,284.997070 
	C367.293945,285.746216 368.523834,286.906891 369.654053,285.323608 
	C370.769318,283.761230 369.269684,282.888489 368.262268,282.131317 
	C364.676636,279.436432 361.011505,276.847473 357.411377,274.171509 
	C355.923065,273.065247 354.368805,271.955933 355.933197,269.720245 
	C357.436188,267.572418 359.064484,267.647583 360.997620,269.060760 
	C364.081818,271.315399 367.188080,273.540741 370.314178,275.736969 
	C377.588501,280.847504 377.670349,285.748962 370.200378,291.751312 
z"/>
<path fill="#000000" opacity="1.000000" stroke="none" 
	d="
M438.727570,536.281189 
	C443.598755,537.807495 444.771454,540.520630 443.230713,545.093262 
	C441.239166,551.003845 439.824738,557.108948 438.165100,563.118286 
	C434.758545,562.688843 432.780396,562.116028 432.811584,558.569214 
	C432.838959,555.450500 430.398773,554.733215 428.014496,556.147827 
	C425.925781,557.387085 424.131561,557.588135 422.738647,555.762024 
	C421.205658,553.752258 423.344849,552.430969 424.386536,551.113708 
	C427.787476,546.813293 431.301849,542.601746 434.812958,538.389648 
	C435.737946,537.280029 436.498474,535.793884 438.727570,536.281189 
z"/>
<path fill="#000000" opacity="1.000000" stroke="none" 
	d="
M708.180847,398.001953 
	C707.405212,400.115204 705.854187,400.108856 704.374817,400.317780 
	C698.644775,401.127014 692.916870,401.952789 687.193665,402.808807 
	C685.515564,403.059753 683.704346,403.514008 683.120789,401.289581 
	C682.666504,399.557983 683.219604,397.875488 684.933167,397.074219 
	C689.140625,395.106750 688.657715,392.910156 685.365356,390.562256 
	C683.697998,389.373230 683.499878,387.747131 684.199707,386.180969 
	C685.164673,384.021637 687.008850,385.089630 688.519653,385.527649 
	C693.128601,386.863861 697.648071,388.607300 702.330872,389.561951 
	C707.041931,390.522339 709.461792,392.558502 708.180847,398.001953 
z"/>
<path fill="#000000" opacity="1.000000" stroke="none" 
	d="
M606.529480,226.458145 
	C605.729187,227.950790 605.054321,229.099762 604.502441,230.305023 
	C603.919006,231.579483 602.515442,233.173737 604.551147,234.123459 
	C606.366394,234.970276 607.108765,233.102814 607.819580,231.858780 
	C609.877502,228.257202 611.859009,224.611725 613.851685,220.973190 
	C614.847778,219.154388 615.763977,217.366898 618.399536,218.684067 
	C621.322510,220.144852 620.280823,222.041122 619.166199,224.030472 
	C616.895508,228.083344 614.756165,232.214600 612.357666,236.189850 
	C609.721680,240.558823 606.529968,241.173615 601.799072,238.521255 
	C597.436218,236.075241 596.029114,232.750076 598.051208,228.689194 
	C600.268250,224.236771 602.821594,219.952072 605.218018,215.588593 
	C606.200134,213.800293 607.332520,212.682480 609.575317,213.876282 
	C611.881653,215.103897 612.087952,216.622452 610.819214,218.742752 
	C609.371643,221.161911 608.072632,223.669891 606.529480,226.458145 
z"/>
<path fill="#000000" opacity="1.000000" stroke="none" 
	d="
M636.635925,260.710510 
	C640.025085,255.738754 643.164368,251.033463 646.414124,246.405685 
	C647.306641,245.134628 648.231018,243.244537 650.334534,244.760452 
	C652.146057,246.065948 653.053223,247.713348 651.634521,249.876007 
	C649.731201,252.777527 647.806641,255.665131 646.488831,259.383453 
	C649.189941,257.730713 651.984924,256.211090 654.567383,254.390015 
	C657.521851,252.306564 659.409851,252.968369 660.955383,256.796814 
	C654.978149,261.512451 648.232910,265.311310 641.567688,269.169952 
	C639.348450,270.454742 638.112000,267.909821 636.696777,266.630737 
	C634.737854,264.860199 634.630005,262.971313 636.635925,260.710510 
z"/>
<path fill="#000000" opacity="1.000000" stroke="none" 
	d="
M365.465118,257.531677 
	C368.148254,254.720245 370.786194,252.825226 374.505585,254.626648 
	C376.002258,255.351517 377.914001,256.051880 377.210327,258.151093 
	C376.553192,260.111420 375.162109,261.650360 372.648163,260.793640 
	C371.689789,260.467041 370.746429,260.102722 369.856323,260.933228 
	C370.346161,263.299957 377.558350,271.011963 379.566681,271.183777 
	C380.118011,271.230927 380.890808,270.925476 381.247803,270.511169 
	C381.862244,269.798035 381.579010,268.901550 381.012756,268.235992 
	C379.742920,266.743347 378.764374,265.261139 380.404297,263.420319 
	C381.206024,262.520355 382.092377,261.628876 383.385742,262.331390 
	C385.338531,263.392059 386.950745,264.823975 387.244385,267.209351 
	C387.756378,271.368927 385.679779,274.306213 382.398804,276.355713 
	C379.353638,278.257935 376.347015,277.587799 373.683502,275.275513 
	C371.422333,273.312531 369.176208,271.332092 366.905396,269.380341 
	C362.234650,265.365845 361.948090,263.431030 365.465118,257.531677 
z"/>
<path fill="#000000" opacity="1.000000" stroke="none" 
	d="
M325.015137,336.257874 
	C325.814240,333.303436 326.326508,330.575256 328.727020,328.960846 
	C330.582489,327.712982 332.948853,326.631042 334.424316,329.033081 
	C335.557831,330.878387 334.508148,332.887085 332.482361,333.986786 
	C331.762817,334.377380 330.897583,334.526642 330.542877,335.613068 
	C331.198364,338.083038 332.746460,337.334900 334.230011,336.383942 
	C336.328796,335.038605 338.253845,333.377441 340.458038,332.252747 
	C343.137848,330.885223 346.005707,330.976440 348.466461,332.904297 
	C351.134918,334.994965 350.714722,337.991058 350.089722,340.747162 
	C349.405396,343.764771 347.899323,346.403961 344.513336,347.143402 
	C342.821228,347.512939 340.876404,347.448425 340.274719,345.533417 
	C339.771667,343.932281 340.435028,342.250305 342.048798,341.252167 
	C343.098053,340.603149 344.846741,340.987976 345.158478,338.931885 
	C343.638031,336.862823 342.123474,338.186584 340.643311,339.134979 
	C338.965790,340.209869 337.414124,341.532440 335.634949,342.388031 
	C329.956177,345.118927 326.161957,343.025665 325.015137,336.257874 
z"/>
<path fill="#000000" opacity="1.000000" stroke="none" 
	d="
M677.936523,313.868774 
	C674.897766,316.306488 671.961487,316.361725 669.546387,313.923920 
	C666.916321,311.269104 665.019958,308.025635 666.414429,304.020721 
	C667.166077,301.862061 668.743225,299.697083 671.157959,300.772125 
	C673.517822,301.822723 674.243286,304.145874 671.923401,306.418854 
	C671.252747,307.075897 671.346252,307.914948 671.993530,308.764984 
	C674.215088,309.597015 674.880310,307.889740 675.410828,306.352936 
	C676.005737,304.629578 676.255920,302.790680 676.756897,301.030762 
	C678.089417,296.350159 681.792297,293.826141 685.533386,294.987915 
	C689.318115,296.163239 692.407227,302.382263 690.954895,306.126038 
	C690.276733,307.874207 689.032104,309.823883 687.049194,309.319061 
	C684.953735,308.785522 684.229919,306.714966 684.984863,304.493011 
	C685.247925,303.718872 685.806458,303.015320 685.191101,301.792725 
	C682.344055,301.173737 681.851440,303.484161 681.472656,305.421600 
	C680.893127,308.385376 680.470764,311.342316 677.936523,313.868774 
z"/>
<path fill="#000000" opacity="1.000000" stroke="none" 
	d="
M413.332214,538.386414 
	C415.317139,535.090088 417.151825,532.129028 418.880219,529.107056 
	C420.109467,526.957947 421.632538,526.395386 423.766724,527.802307 
	C425.565247,528.987915 427.473083,530.025879 429.178589,531.330444 
	C432.413177,533.804504 432.997131,536.868469 431.105408,540.549866 
	C429.142792,544.369080 426.350525,547.058411 422.031860,545.108215 
	C418.221619,543.387634 416.602386,544.796509 415.149109,547.907227 
	C414.237885,549.857666 412.905579,550.602905 410.788330,549.257141 
	C408.858459,548.030579 408.440491,546.641052 409.609833,544.699219 
	C410.807037,542.711060 411.962708,540.697876 413.332214,538.386414 
M423.680664,539.520203 
	C424.786041,538.045044 426.472809,536.687866 424.561005,534.143982 
	C422.900848,535.989807 419.339020,536.839722 423.680664,539.520203 
z"/>
<path fill="#000000" opacity="1.000000" stroke="none" 
	d="
M669.280029,272.490540 
	C668.612122,272.016174 668.273315,271.643158 667.874084,271.353424 
	C666.234924,270.163788 665.858704,266.441254 662.669983,268.362885 
	C659.285706,270.402344 662.133057,272.207733 663.219666,274.004364 
	C663.964966,275.236816 663.616455,276.219330 662.584167,277.044983 
	C661.494934,277.916168 660.431519,277.831238 659.526428,276.770691 
	C658.674011,275.771912 657.886475,274.717773 657.310547,273.990967 
	C655.055908,274.300262 653.907898,275.141235 652.999939,276.456421 
	C652.924805,278.744293 654.997192,279.755707 655.980774,281.402832 
	C656.749512,282.690338 656.989319,283.846710 655.704102,284.931396 
	C654.379883,286.048981 653.275757,285.583679 652.265991,284.453003 
	C652.045044,284.205658 651.843689,283.940277 651.616455,283.699127 
	C643.731628,275.331543 643.730591,275.330933 652.609619,268.117584 
	C653.639771,267.280670 654.686951,266.464752 655.720947,265.632416 
	C665.877258,257.456451 662.848267,257.924957 671.378296,268.261230 
	C673.240540,270.517883 672.833435,272.264618 669.280029,272.490540 
z"/>
<path fill="#000000" opacity="1.000000" stroke="none" 
	d="
M355.901764,294.040833 
	C358.381104,295.464783 360.531433,296.733856 362.722748,297.927673 
	C364.858948,299.091370 366.232635,300.385498 364.697235,303.049164 
	C363.219940,305.611938 361.561005,304.770660 359.702759,303.683441 
	C356.687134,301.919098 353.654510,300.181824 350.593323,298.498077 
	C348.190948,297.176697 345.764099,295.040863 343.425568,298.756226 
	C342.841705,299.683838 341.631134,299.397369 340.710388,298.819763 
	C339.541138,298.086273 339.156433,296.974030 339.801117,295.813995 
	C341.820618,292.179932 343.932465,288.596313 346.060089,285.023834 
	C346.611206,284.098389 347.497742,283.609863 348.603699,284.092773 
	C349.539124,284.501160 350.726471,285.225830 350.283478,286.236359 
	C347.841309,291.807495 353.222626,291.751190 355.901764,294.040833 
z"/>
<path fill="#000000" opacity="1.000000" stroke="none" 
	d="
M335.791687,308.902588 
	C340.006165,309.692139 337.526611,312.603607 338.130554,315.130707 
	C342.525269,316.945129 347.234863,318.881683 351.937622,320.834778 
	C354.010834,321.695770 356.023193,322.543274 354.797241,325.516418 
	C353.546326,328.550171 351.519745,327.553741 349.470703,326.722717 
	C346.242279,325.413483 343.015564,324.100098 339.789337,322.785522 
	C337.325714,321.781738 334.836060,320.346649 333.145660,323.985168 
	C332.639343,325.075012 331.562317,324.936676 330.546417,324.491547 
	C329.258514,323.927338 328.723602,322.981476 329.303925,321.708649 
	C331.264038,317.409485 331.736725,312.392761 335.791687,308.902588 
z"/>
<path fill="#000000" opacity="1.000000" stroke="none" 
	d="
M697.896118,319.372437 
	C699.334167,323.276520 700.584290,326.868591 701.798157,330.472839 
	C702.243896,331.796295 702.440369,333.137665 700.816956,333.840912 
	C699.536865,334.395508 698.424133,333.894470 697.921204,332.715607 
	C696.781250,330.043671 694.898315,330.749878 692.963379,331.415375 
	C689.054626,332.759888 685.116333,334.026184 681.250000,335.483154 
	C679.057495,336.309326 677.533081,336.348083 676.565796,333.747345 
	C675.532959,330.970398 677.183472,330.238495 679.216553,329.535339 
	C682.341980,328.454346 685.465393,327.364075 688.560425,326.199890 
	C691.316895,325.162994 694.829956,325.092743 694.040833,320.288361 
	C693.743347,318.477051 695.875793,317.822449 697.896118,319.372437 
z"/>
<path fill="#000000" opacity="1.000000" stroke="none" 
	d="
M518.321777,574.174194 
	C520.562805,574.221619 522.675659,574.188965 522.508118,576.845276 
	C522.366211,579.093750 520.416321,579.011414 518.747437,579.153442 
	C508.223206,580.048950 507.806274,579.672058 507.759094,569.157776 
	C507.743469,565.674744 507.720886,562.191589 507.671478,558.708923 
	C507.639374,556.444702 507.627289,554.220337 510.786682,554.183838 
	C513.974670,554.147034 513.992065,556.631287 514.099976,558.715759 
	C514.314209,562.854004 514.338928,567.005981 514.311401,571.151428 
	C514.294067,573.765808 515.305847,574.883484 518.321777,574.174194 
z"/>
<path fill="#000000" opacity="1.000000" stroke="none" 
	d="
M336.420654,303.465698 
	C337.555267,300.513184 339.314392,300.713257 341.389038,301.705658 
	C346.781799,304.285431 352.191467,306.830139 357.608429,309.358734 
	C359.514618,310.248535 360.572357,311.320404 359.440826,313.608765 
	C358.450684,315.611206 357.319122,316.319122 355.131104,315.296906 
	C349.566254,312.696991 343.925415,310.260162 338.340607,307.702148 
	C336.734772,306.966644 335.473450,305.904877 336.420654,303.465698 
z"/>
<path fill="#000000" opacity="1.000000" stroke="none" 
	d="
M637.914490,250.888565 
	C636.064941,253.052429 634.430786,254.934357 632.848816,256.859253 
	C631.404480,258.616730 629.946838,259.484222 627.837219,257.699646 
	C625.775818,255.955902 626.172729,254.496521 627.787292,252.691986 
	C631.663269,248.359833 635.472595,243.963821 639.178650,239.485794 
	C640.719604,237.623810 642.122314,237.018707 644.186096,238.647964 
	C646.262878,240.287491 645.406067,241.780075 644.161865,243.310959 
	C642.171814,245.759674 640.156982,248.188278 637.914490,250.888565 
z"/>
<path fill="#000000" opacity="1.000000" stroke="none" 
	d="
M379.916748,256.067749 
	C378.084015,254.339767 376.475098,252.891815 374.954346,251.356552 
	C373.344910,249.731705 373.570465,248.139313 375.194366,246.612976 
	C376.707855,245.190491 378.171783,245.321091 379.582581,246.692581 
	C384.117340,251.101135 388.609711,255.553452 393.164917,259.940674 
	C394.625824,261.347748 394.900879,262.650604 393.431854,264.215515 
	C391.974396,265.768127 390.515045,266.400146 388.758514,264.677368 
	C385.906555,261.880127 383.039825,259.097931 379.916748,256.067749 
z"/>
<path fill="#000000" opacity="1.000000" stroke="none" 
	d="
M344.608093,374.138550 
	C342.565491,376.254578 340.283234,375.318573 338.239258,375.230835 
	C333.257233,375.016998 328.283295,374.525635 323.319824,374.013245 
	C321.435913,373.818756 319.687531,373.220734 319.846375,370.675873 
	C319.999176,368.228302 321.541992,367.582916 323.590881,367.721039 
	C329.730408,368.135010 335.870087,368.566437 341.998474,369.116516 
	C344.885193,369.375671 345.476471,371.263519 344.608093,374.138550 
z"/>
<path fill="#000000" opacity="1.000000" stroke="none" 
	d="
M692.209229,317.275604 
	C686.913025,319.421814 681.975586,321.424957 677.050964,323.459198 
	C675.196594,324.225189 673.638611,324.569061 672.501526,322.230316 
	C671.253113,319.662537 672.598999,318.434753 674.606201,317.591858 
	C679.670715,315.465118 684.793579,313.477631 689.878113,311.397644 
	C692.092834,310.491638 694.206848,309.298828 695.596008,312.639343 
	C696.935059,315.859650 694.479919,316.253693 692.209229,317.275604 
z"/>
<path fill="#000000" opacity="1.000000" stroke="none" 
	d="
M695.929443,383.158020 
	C692.787231,383.219208 690.126221,383.270752 687.465088,383.282990 
	C685.347168,383.292755 683.966675,382.443024 683.830750,380.118195 
	C683.688965,377.693268 685.063660,376.857391 687.199036,376.834595 
	C693.354004,376.768860 699.509277,376.712646 705.664551,376.691010 
	C707.675476,376.683960 708.741699,377.825226 708.816589,379.781036 
	C708.893250,381.783722 707.493164,382.209351 705.854492,382.337219 
	C702.705017,382.583038 699.558411,382.864655 695.929443,383.158020 
z"/>
<path fill="#000000" opacity="1.000000" stroke="none" 
	d="
M535.880493,424.053345 
	C530.873291,424.908173 526.302673,427.094604 522.000122,429.531281 
	C517.654236,431.992493 514.004333,430.912781 510.747406,428.331635 
	C501.351715,420.885284 492.413879,412.855743 482.298706,406.339142 
	C480.757050,405.345947 480.163452,403.775787 479.992157,402.089294 
	C478.028595,382.760101 476.103149,363.427032 474.057068,342.991730 
	C483.790253,345.906494 490.004059,352.129730 496.002960,358.618896 
	C502.000153,365.106293 506.376312,372.782471 511.486633,380.774597 
	C523.251831,366.772614 533.135742,351.657928 549.159607,341.136688 
	C549.159607,347.548004 549.417725,352.802155 549.109558,358.022888 
	C548.296387,371.799530 547.114563,385.554901 546.358826,399.334076 
	C546.158142,402.992920 545.101746,405.533417 541.993225,407.650360 
	C536.351868,411.492157 530.940674,415.679047 525.524536,419.840576 
	C523.225769,421.606781 521.157043,423.672424 519.473755,426.202606 
	C528.780579,421.510254 538.075623,416.794281 547.402100,412.141327 
	C549.902527,410.893860 549.761169,408.774231 549.527954,406.571411 
	C547.833862,390.571899 549.764282,374.664246 550.719177,358.731323 
	C550.803528,357.323395 551.150818,356.058716 552.483093,355.370789 
	C557.023743,353.026184 561.585938,350.723145 565.836731,348.558624 
	C567.048889,349.431946 567.110962,350.102325 566.892761,350.744965 
	C561.304077,367.208832 562.020447,384.187897 562.739868,401.169525 
	C562.908875,405.158752 564.098328,409.507538 562.905396,413.045929 
	C561.529846,417.125641 556.103394,415.048187 552.824524,416.812897 
	C550.205750,418.222382 547.003540,418.372314 544.130371,420.774475 
	C541.014587,422.069153 538.447510,423.061249 535.880493,424.053345 
z"/>
<path fill="#000000" opacity="1.000000" stroke="none" 
	d="
M462.547943,401.579681 
	C462.620575,383.698578 463.836243,366.185791 457.479492,347.990509 
	C463.666107,350.570099 468.590881,353.041534 473.299377,355.964478 
	C474.412689,356.655640 474.301544,357.985901 474.359344,359.148285 
	C475.159393,375.240967 477.437836,391.304749 475.374786,407.453522 
	C475.016479,410.258362 476.374969,411.649628 478.750885,412.810394 
	C486.828949,416.756927 494.835236,420.851654 502.839539,424.947266 
	C505.322998,426.217957 507.691132,427.695557 509.313782,430.353302 
	C507.340149,431.960938 505.902893,430.768036 504.519684,430.145660 
	C493.895752,425.365265 483.215912,420.724792 472.216156,416.859497 
	C471.902161,416.749176 471.597992,416.610321 471.282288,416.505798 
	C461.005859,413.104401 461.005737,413.104797 462.547943,401.579681 
z"/>
<path fill="#000000" opacity="1.000000" stroke="none" 
	d="
M535.643433,424.288147 
	C538.447510,423.061249 541.014587,422.069153 543.882446,420.992859 
	C552.210388,420.908813 559.161743,416.690979 566.791260,415.100128 
	C568.678040,414.706665 568.419739,413.052002 568.018616,411.420715 
	C564.620850,397.602814 566.086853,383.627075 566.931641,369.699249 
	C567.316528,363.353760 569.604614,362.478973 579.697083,364.407440 
	C571.817932,384.571564 577.779297,404.407440 581.835022,424.959961 
	C570.637207,423.526764 560.323730,424.854767 550.069885,426.717590 
	C539.946533,428.556702 530.164124,431.760468 520.059692,434.274536 
	C523.300781,428.087067 530.308533,427.761475 535.643433,424.288147 
z"/>
<path fill="#000000" opacity="1.000000" stroke="none" 
	d="
M457.852356,365.375549 
	C459.687653,381.319641 461.050110,396.883484 457.593964,412.382874 
	C456.862274,415.664215 459.241364,415.858307 461.272614,416.490631 
	C473.968384,420.442505 487.013214,423.354126 499.128967,429.031311 
	C501.716431,430.243744 504.864288,430.970551 506.193787,435.640228 
	C485.729614,428.872955 465.788940,423.466919 444.060364,425.439941 
	C447.788177,404.930725 454.207489,385.244202 445.922668,364.885040 
	C450.021606,363.644928 453.807495,363.317078 457.852356,365.375549 
z"/>
<path fill="#000000" opacity="1.000000" stroke="none" 
	d="
M532.673828,608.281372 
	C532.542419,605.966125 531.876892,603.821472 534.144409,602.579407 
	C535.101196,602.055298 536.152405,602.167603 536.929443,602.927673 
	C538.404114,604.370300 538.626648,606.299133 537.939880,608.041687 
	C536.705017,611.174866 534.882935,611.958984 532.673828,608.281372 
z"/>
<path fill="#000000" opacity="1.000000" stroke="none" 
	d="
M537.581055,598.165527 
	C535.924072,599.781189 534.282227,600.030151 533.218811,598.299683 
	C532.256409,596.733704 532.331177,594.758667 533.403931,593.177246 
	C534.092712,592.161926 535.399719,591.935181 536.493347,592.610352 
	C538.564819,593.889099 538.318054,595.851562 537.581055,598.165527 
z"/>
<path fill="#000000" opacity="1.000000" stroke="none" 
	d="
M507.460114,600.133789 
	C506.248016,601.912109 504.830292,602.659424 503.640045,601.064026 
	C501.925171,598.765259 502.430664,596.012573 503.149933,593.467773 
	C503.494476,592.248840 504.752472,591.738464 505.996643,592.221313 
	C507.847351,592.939697 508.086060,594.661072 508.077026,596.346069 
	C508.070923,597.485229 507.790253,598.622803 507.460114,600.133789 
z"/>
<path fill="#000000" opacity="1.000000" stroke="none" 
	d="
M669.635315,605.899048 
	C669.037476,607.706665 669.999878,609.652954 668.062500,610.648315 
	C665.883728,608.274658 664.924194,596.251404 666.949097,594.493347 
	C669.066772,592.654724 671.748535,593.565552 674.114563,593.954224 
	C676.016296,594.266541 677.319214,595.841980 677.369873,597.882385 
	C677.475098,602.119568 677.401672,606.361145 677.401672,610.720764 
	C674.198547,611.164001 674.200195,608.810608 673.810852,607.015259 
	C673.211243,604.249573 672.002441,603.593384 669.635315,605.899048 
z"/>
</svg>